<svg width="0" height="0" class="hidden">
    <symbol xmlns="http://www.w3.org/2000/svg" viewBox="133 57 14.17 14.127" id="google">
        <path d="M142.014 57h-4.18a4.268 4.268 0 0 0-2.462.777c-.718.51-1.225 1.224-1.378 2.003a2.543 2.543 0 0 0-.049.492c0 1.49.84 2.721 2.32 3.056a3.792 3.792 0 0 0 .839.09c.136 0 .271-.006.404-.015a1.76 1.76 0 0 0-.222.81 1.118 1.118 0 0 0 .05.34c.092.29.298.503.54.738a20.071 20.071 0 0 0 .01.01c-.125 0-.248.001-.373.003a33.581 33.581 0 0 1-.383.003 4.844 4.844 0 0 0-1.925.386c-1.284.553-2.114 1.626-2.198 2.698a2.293 2.293 0 0 0-.007.18 2.01 2.01 0 0 0 .96 1.64c.828.585 2.11.916 3.518.916 2.314 0 3.883-1.093 4.335-2.372a2.296 2.296 0 0 0 .134-.767 5.235 5.235 0 0 0-.037-.676c-.11-.833-.487-1.397-1.527-2.184a11.897 11.897 0 0 0-.059-.044c-.34-.254-1.03-.744-1.193-1.13a.397.397 0 0 1-.035-.153c0-.465.132-.695.839-1.244a3.275 3.275 0 0 0 1.062-1.336 2.387 2.387 0 0 0 .171-.89 3.166 3.166 0 0 0-.302-1.388 2.204 2.204 0 0 0-.884-.966h1.098l.934-.977Zm3.226 2.114v-1.922h-.964v1.922h-1.926v.959h1.926v1.921h.964v-1.921h1.93v-.96h-1.93Zm-4.643 8.605c.034.145.053.293.053.447 0 1.222-.76 2.186-2.914 2.26a7.907 7.907 0 0 1-.267.004 3.519 3.519 0 0 1-1.384-.27c-.51-.219-.919-.556-1.18-.964a2.013 2.013 0 0 1-.327-1.094c0-1.235 1.397-2.303 3.056-2.303a3.867 3.867 0 0 1 .045 0c.391.004.757.066 1.087.174.598.413 1.12.726 1.46 1.095a1.498 1.498 0 0 1 .37.65Zm-4.253-5.686a2.285 2.285 0 0 0 1.565.75 1.93 1.93 0 0 0 .058.001c1.09 0 1.713-.942 1.522-2.39a4.113 4.113 0 0 0-.164-.728c-.364-1.125-1.186-1.961-2.12-1.99-1.126-.033-1.883 1.096-1.686 2.57.095.725.403 1.343.825 1.787Z" fill-rule="evenodd"></path>
    </symbol>
    <symbol xmlns="http://www.w3.org/2000/svg" viewBox="84.833 57.986 14.179 11.479" id="tweter">
        <path d="M84.833 68.164a8.25 8.25 0 0 0 4.459 1.3c5.35 0 8.277-4.415 8.277-8.246 0-.124-.003-.25-.01-.374a5.844 5.844 0 0 0 1.453-1.5 5.716 5.716 0 0 1-1.671.455 2.901 2.901 0 0 0 1.28-1.602 5.876 5.876 0 0 1-1.849.703 2.91 2.91 0 0 0-2.123-.914 2.902 2.902 0 0 0-2.834 3.557 8.267 8.267 0 0 1-5.996-3.028 2.894 2.894 0 0 0 .9 3.869 2.887 2.887 0 0 1-1.318-.36v.034a2.903 2.903 0 0 0 2.334 2.842 2.93 2.93 0 0 1-1.313.05 2.906 2.906 0 0 0 2.717 2.013 5.844 5.844 0 0 1-3.613 1.24c-.235 0-.465-.012-.693-.039Z" fill-rule="evenodd"></path>
    </symbol>
    <symbol xmlns="http://www.w3.org/2000/svg" viewBox="173 56 14.18 14.127" id="dribble">
        <path d="M186.62 60.314a7.087 7.087 0 0 0-.652-1.2 7.31 7.31 0 0 0-.866-1.046 7.224 7.224 0 0 0-1.048-.861 7.064 7.064 0 0 0-1.206-.652 7.116 7.116 0 0 0-1.332-.41 6.951 6.951 0 0 0-1.323-.144 7.331 7.331 0 0 0-.103-.001 6.971 6.971 0 0 0-1.427.144 7.227 7.227 0 0 0-1.334.41 7.095 7.095 0 0 0-1.205.653 7.5 7.5 0 0 0-1.049.861c-.32.32-.611.672-.863 1.045a7.233 7.233 0 0 0-.655 1.201 7.049 7.049 0 0 0-.557 2.748 7.07 7.07 0 0 0 .144 1.424 7.143 7.143 0 0 0 .413 1.329c.178.416.399.822.655 1.199a7.017 7.017 0 0 0 .863 1.045 7.108 7.108 0 0 0 1.049.859 7 7 0 0 0 1.205.654 7.195 7.195 0 0 0 1.334.412 7.234 7.234 0 0 0 2.853 0 7.085 7.085 0 0 0 1.332-.412 6.97 6.97 0 0 0 1.206-.654 6.86 6.86 0 0 0 1.048-.86 7.225 7.225 0 0 0 .866-1.044 7.069 7.069 0 0 0 1.066-2.528 6.999 6.999 0 0 0 .146-1.424 7.005 7.005 0 0 0-.006-.271 6.95 6.95 0 0 0-.14-1.149 6.887 6.887 0 0 0-.414-1.328Zm-12.57 3.18a5.992 5.992 0 0 0 1.533 3.597 2.913 2.913 0 0 1 .05-.084c.248-.402 1.402-2.143 3.443-3.274a8.05 8.05 0 0 1 1.433-.624l.118-.035a10.307 10.307 0 0 1 .121-.035 20.416 20.416 0 0 0-.493-1.025c-3.02.9-5.922.864-6.197.86a10.864 10.864 0 0 1-.018-.001c0 .031-.002.063-.004.095a2.423 2.423 0 0 0-.002.094 6.11 6.11 0 0 0 .015.433Zm2.318 4.326a3.65 3.65 0 0 0-.002-.002 25.38 25.38 0 0 0-.133-.103c.025.02.052.036.078.054a.733.733 0 0 1 .061.042 2.405 2.405 0 0 1 .068-.131c.285-.517 1.488-2.406 4.337-3.504a10.67 10.67 0 0 1 .342-.125.4.4 0 0 0 .04-.014 25.998 25.998 0 0 1 .55 1.572c.361 1.155.572 2.102.678 2.65a14.011 14.011 0 0 1 .065.358 6.011 6.011 0 0 1-2.206.477 6.16 6.16 0 0 1-.156.002 5.996 5.996 0 0 1-2.942-.77 6.216 6.216 0 0 1-.776-.515l-.004.01Zm3.385-6.736a30.567 30.567 0 0 0-.205-.358 35.137 35.137 0 0 0-2.043-3.117 6.041 6.041 0 0 0-3.341 4.211 1.701 1.701 0 0 0 .004 0c.149.003 1.633.017 3.603-.311a21.765 21.765 0 0 0 1.982-.425Zm3.476-3.178a6.035 6.035 0 0 0-3.14-.875 6.132 6.132 0 0 0-1.426.17 15.087 15.087 0 0 1 .076.101 31.41 31.41 0 0 1 1.908 2.922 26.497 26.497 0 0 1 .279.497c1.994-.746 2.903-1.836 3.113-2.117a1.725 1.725 0 0 0 .049-.067 6.06 6.06 0 0 0-.859-.63Zm-1.304 4.9a15.8 15.8 0 0 0-.021-.05 13.373 13.373 0 0 0-.11-.262c-.127-.295-.26-.588-.402-.875a10.401 10.401 0 0 0 .592-.262c1.867-.896 2.69-1.998 2.774-2.115a.768.768 0 0 0 .007-.01 5.983 5.983 0 0 1 1.366 3.47 6.121 6.121 0 0 1 .01.3 2.21 2.21 0 0 1-.009-.002c-.162-.033-1.894-.39-3.764-.239a10.128 10.128 0 0 0-.443.045Zm1.547 5.26a11.612 11.612 0 0 0-.036-.2 26.31 26.31 0 0 0-.908-3.443 27.096 27.096 0 0 0-.233-.665 7.746 7.746 0 0 1 .763-.083c1.608-.096 2.892.308 3.007.346a.795.795 0 0 1 .001 0 6.028 6.028 0 0 1-2.594 4.045Zm-4.832-10.86-.001.002-.014.002a.029.029 0 0 1-.005.001.07.07 0 0 0 .002 0 .08.08 0 0 0 .014-.002.406.406 0 0 1 .004-.002Z" fill-rule="evenodd"></path>
    </symbol>
    <symbol xmlns="http://www.w3.org/2000/svg" viewBox="43.295 56.115 6.589 14.127" id="facebook">
        <path d="M44.694 70.242h2.946v-7.058h1.986l.258-2.495H47.64v-1.467c0-.548.367-.677.625-.677h1.582v-2.422l-2.181-.008c-2.42 0-2.972 1.807-2.972 2.96v1.614h-1.4v2.495h1.4v7.058Z" fill-rule="evenodd"></path>
    </symbol>
    <symbol xmlns="http://www.w3.org/2000/svg" viewBox="0 0 512 512" id="copyright">
        <path d="M256 0C114.6 0 0 114.6 0 256s114.6 256 256 256s256-114.6 256-256S397.4 0 256 0zM256 464c-114.7 0-208-93.31-208-208S141.3 48 256 48s208 93.31 208 208S370.7 464 256 464zM255.1 176C255.1 176 255.1 176 255.1 176c21.06 0 40.92 8.312 55.83 23.38c9.375 9.344 24.53 9.5 33.97 .1562c9.406-9.344 9.469-24.53 .1562-33.97c-24-24.22-55.95-37.56-89.95-37.56c0 0 .0313 0 0 0c-33.97 0-65.95 13.34-89.95 37.56c-49.44 49.88-49.44 131 0 180.9c24 24.22 55.98 37.56 89.95 37.56c.0313 0 0 0 0 0c34 0 65.95-13.34 89.95-37.56c9.312-9.438 9.25-24.62-.1562-33.97c-9.438-9.312-24.59-9.219-33.97 .1562c-14.91 15.06-34.77 23.38-55.83 23.38c0 0 .0313 0 0 0c-21.09 0-40.95-8.312-55.89-23.38c-30.94-31.22-30.94-82.03 0-113.3C214.2 184.3 234 176 255.1 176z"></path>
    </symbol>
</svg>